<?xml version="1.0" encoding="iso-8859-1"?>
<!-- Generator: Adobe Illustrator 19.0.0, SVG Export Plug-In . SVG Version: 6.00 Build 0)  -->
<svg version="1.1" id="Capa_1" xmlns="http://www.w3.org/2000/svg" xmlns:xlink="http://www.w3.org/1999/xlink" x="0px" y="0px"
	 viewBox="0 0 480.023 480.023" style="enable-background:new 0 0 480.023 480.023;" xml:space="preserve">
<g>
	<g>
		<path d="M444.012,144.02h-32c-1.87-0.001-3.682,0.652-5.12,1.848l-45.776,38.152h-29.104v-32
			c-0.017-2.328-1.066-4.529-2.864-6.008c36.48-24.88,45.884-74.621,21.004-111.101c-24.88-36.48-74.621-45.884-111.101-21.004
			c-11.626,7.929-20.953,18.785-27.039,31.473c-19.111-39.802-66.868-56.575-106.67-37.464
			C65.54,27.027,48.767,74.784,67.877,114.586c6.082,12.666,15.394,23.505,26.998,31.426c-1.798,1.479-2.847,3.68-2.864,6.008v48
			H68.988l-31.032-7.76c-4.286-1.074-8.631,1.53-9.704,5.816c-0.159,0.636-0.24,1.288-0.24,1.944v48c0,4.418,3.582,8,8,8
			c0.655,0,1.308-0.08,1.944-0.24l31.032-7.76h23.024v48c0,4.418,3.582,8,8,8h80v16h-8c-4.418,0-8,3.582-8,8s3.582,8,8,8h3.688
			l-59,132.752c-1.794,4.038,0.026,8.766,4.064,10.56c4.038,1.794,8.766-0.026,10.56-4.064l61.888-139.248h10.8v136
			c0,4.418,3.582,8,8,8s8-3.582,8-8v-136h10.8L292.7,475.268c1.794,4.038,6.522,5.858,10.56,4.064
			c4.038-1.794,5.858-6.522,4.064-10.56l-59-132.752h3.688c4.418,0,8-3.582,8-8s-3.582-8-8-8h-8v-16h80c4.418,0,8-3.582,8-8v-32
			h29.104l45.776,38.152c1.438,1.196,3.25,1.849,5.12,1.848h32c4.418,0,8-3.582,8-8v-144
			C452.012,147.602,448.43,144.02,444.012,144.02z M60.012,233.772l-16,4v-27.504l16,4V233.772z M92.012,232.02h-16v-16h16V232.02z
			 M236.22,144.02h-48.416c10.302-7.709,18.604-17.778,24.208-29.36C217.616,126.243,225.918,136.311,236.22,144.02z M76.012,80.02
			c0-35.346,28.654-64,64-64c35.346,0,64,28.654,64,64c0,35.346-28.654,64-64,64C104.682,143.981,76.051,115.35,76.012,80.02z
			 M228.012,320.02h-32v-16h32V320.02z M316.012,288.02h-208v-128h208V288.02z M284.012,144.02c-35.346,0-64-28.654-64-64
			c0.04-35.33,28.67-63.96,64-64c35.346,0,64,28.654,64,64C348.012,115.367,319.358,144.02,284.012,144.02z M356.012,248.02h-24v-48
			h24V248.02z M436.012,288.02h-21.104l-42.896-35.752v-56.496l42.896-35.752h21.104V288.02z"/>
	</g>
</g>
<g>
	<g>
		<path d="M140.012,48.02c-17.673,0-32,14.327-32,32s14.327,32,32,32s32-14.327,32-32S157.685,48.02,140.012,48.02z M140.012,96.02
			c-8.837,0-16-7.163-16-16s7.163-16,16-16s16,7.163,16,16S148.848,96.02,140.012,96.02z"/>
	</g>
</g>
<g>
	<g>
		<path d="M284.012,48.02c-17.673,0-32,14.327-32,32s14.327,32,32,32c17.673,0,32-14.327,32-32S301.685,48.02,284.012,48.02z
			 M284.012,96.02c-8.837,0-16-7.163-16-16s7.163-16,16-16s16,7.163,16,16S292.848,96.02,284.012,96.02z"/>
	</g>
</g>
<g>
	<g>
		<path d="M292.012,176.02h-160c-4.418,0-8,3.582-8,8v80c0,4.418,3.582,8,8,8h160c4.418,0,8-3.582,8-8v-80
			C300.012,179.602,296.43,176.02,292.012,176.02z M284.012,256.02h-144v-64h144V256.02z"/>
	</g>
</g>
<g>
	<g>
		<rect x="188.012" y="216.02" width="16" height="16"/>
	</g>
</g>
<g>
	<g>
		<rect x="220.012" y="216.02" width="16" height="16"/>
	</g>
</g>
<g>
	<g>
		<rect x="252.012" y="216.02" width="16" height="16"/>
	</g>
</g>
<g>
	<g>
		<rect x="156.012" y="216.02" width="16" height="16"/>
	</g>
</g>
<g>
</g>
<g>
</g>
<g>
</g>
<g>
</g>
<g>
</g>
<g>
</g>
<g>
</g>
<g>
</g>
<g>
</g>
<g>
</g>
<g>
</g>
<g>
</g>
<g>
</g>
<g>
</g>
<g>
</g>
</svg>
