<svg xmlns="http://www.w3.org/2000/svg" viewBox="0 0 1775 1012.6"><defs><style>.cls-1{fill:#fff;}.cls-2{fill:#aa0019;}.cls-3{fill:none;stroke:#aa0019;stroke-miterlimit:10;stroke-width:8px;}.cls-4{font-size:12px;font-family:NexaBold;}</style></defs><g id="Layer_2" data-name="Layer 2"><g id="na"><polygon class="cls-1" points="1662 554.6 1662 588.6 114 588.6 114 554.6 165 554.6 165 522.6 286 522.6 286 554.6 297 554.6 297 463.6 302 463.6 302 450.6 307 450.6 307 436.6 312 436.6 312 305.6 317 305.6 317 274.6 322 274.6 322 242.6 327 242.6 327 211.6 332 211.6 332 164.6 342 164.6 342 211.6 347 211.6 347 242.6 352 242.6 352 274.6 357 274.6 357 305.6 363 305.6 363 383.6 368 383.6 368 374.6 373 374.6 373 365.6 378 365.6 378 356.6 383 356.6 383 346.6 393 346.6 393 356.6 398 356.6 398 365.6 403 365.6 403 374.6 408 374.6 408 383.6 413 383.6 413 305.6 418 305.6 418 274.6 423 274.6 423 242.6 429 242.6 429 211.6 434 211.6 434 164.6 444 164.6 444 211.6 449 211.6 449 242.6 454 242.6 454 274.6 459 274.6 459 305.6 464 305.6 464 436.6 469 436.6 469 450.6 474 450.6 474 463.6 479 463.6 479 554.6 489 554.6 489 265.6 500 265.6 500 248.6 540 248.6 540 239.6 566 239.6 566 248.6 576 248.6 576 278.6 586 278.6 586 303.6 596 303.6 596 554.6 606 554.6 606 305.6 657 305.6 657 336.6 698 336.6 698 554.6 708 554.6 708 421.6 753 421.6 753 404.6 764 404.6 764 381.6 769 381.6 769 373.6 774 373.6 774 368.6 779 368.6 779 363.6 789 363.6 789 368.6 794 368.6 794 373.6 799 373.6 799 381.6 804 381.6 804 404.6 814 404.6 814 397.6 850 397.6 850 381.6 941 381.6 941 397.6 977 397.6 977 404.6 987 404.6 987 381.6 992 381.6 992 373.6 997 373.6 997 368.6 1002 368.6 1002 363.6 1012 363.6 1012 368.6 1018 368.6 1018 373.6 1023 373.6 1023 381.6 1028 381.6 1028 404.6 1038 404.6 1038 421.6 1084 421.6 1084 554.6 1094 554.6 1094 404.6 1170 404.6 1170 388.6 1271 388.6 1271 404.6 1348 404.6 1348 554.6 1358 554.6 1358 388.6 1419 388.6 1419 436.6 1480 436.6 1480 554.6 1490 554.6 1490 463.6 1515 463.6 1515 522.6 1612 522.6 1612 554.6 1662 554.6"/><polygon class="cls-1" points="1662 588.6 1662 622.6 1612 622.6 1612 654.6 1515 654.6 1515 713.6 1490 713.6 1490 622.6 1480 622.6 1480 740.6 1419 740.6 1419 788.6 1358 788.6 1358 622.6 1348 622.6 1348 772.6 1271 772.6 1271 788.6 1170 788.6 1170 772.6 1094 772.6 1094 622.6 1084 622.6 1084 755.6 1038 755.6 1038 772.6 1028 772.6 1028 795.6 1023 795.6 1023 803.6 1018 803.6 1018 808.6 1012 808.6 1012 813.6 1002 813.6 1002 808.6 997 808.6 997 803.6 992 803.6 992 795.6 987 795.6 987 772.6 977 772.6 977 795.6 941 795.6 941 813.6 850 813.6 850 795.6 814 795.6 814 772.6 804 772.6 804 795.6 799 795.6 799 803.6 794 803.6 794 808.6 789 808.6 789 813.6 779 813.6 779 808.6 774 808.6 774 803.6 769 803.6 769 795.6 764 795.6 764 772.6 753 772.6 753 755.6 708 755.6 708 622.6 698 622.6 698 840.6 657 840.6 657 871.6 606 871.6 606 622.6 596 622.6 596 873.6 586 873.6 586 898.6 576 898.6 576 928.6 566 928.6 566 937.6 540 937.6 540 928.6 500 928.6 500 911.6 489 911.6 489 622.6 479 622.6 479 713.6 474 713.6 474 726.6 469 726.6 469 740.6 464 740.6 464 871.6 459 871.6 459 902.6 454 902.6 454 934.6 449 934.6 449 965.6 444 965.6 444 1012.6 434 1012.6 434 965.6 429 965.6 429 934.6 423 934.6 423 902.6 418 902.6 418 871.6 413 871.6 413 793.6 408 793.6 408 802.6 403 802.6 403 811.6 398 811.6 398 820.6 393 820.6 393 830.6 383 830.6 383 820.6 378 820.6 378 811.6 373 811.6 373 802.6 368 802.6 368 793.6 363 793.6 363 871.6 357 871.6 357 902.6 352 902.6 352 934.6 347 934.6 347 965.6 342 965.6 342 1012.6 332 1012.6 332 965.6 327 965.6 327 934.6 322 934.6 322 902.6 317 902.6 317 871.6 312 871.6 312 740.6 307 740.6 307 726.6 302 726.6 302 713.6 297 713.6 297 622.6 286 622.6 286 654.6 165 654.6 165 622.6 114 622.6 114 588.6 1662 588.6"/><path class="cls-1" d="M90.5,161.14V80.64h8.23v84q0,17,9.78,26.5t27.39,9.54q17.78,0,27.52-9.22t9.73-26.82v-84h8.24v80.5q0,47-45.68,47-22.65,0-33.93-12.12T90.5,161.14Z" transform="translate(0 -78.11)"/><path class="cls-1" d="M248,80.64q21,0,32.71,8.56t11.75,25q0,19.56-14.23,29.06T237,152.72a130.42,130.42,0,0,1-14.41-1v54.1h-8.24V80.64Zm35.85,33.88q0-14-10.21-20.22t-28.73-6.17H222.58v56.16q9.36.94,14.41.94,24.72,0,35.76-7.87T283.8,114.52Z" transform="translate(0 -78.11)"/><path class="cls-1" d="M349.32,88.31H306.17V80.64H400.9v7.67H357.56V205.79h-8.24Z" transform="translate(0 -78.11)"/><path class="cls-1" d="M413.63,143.26q0-18.63,7.26-33.51a56.49,56.49,0,0,1,20.17-23.26,52.62,52.62,0,0,1,29.3-8.38q17.13,0,30,8.38a54.85,54.85,0,0,1,19.85,23.17q7,14.79,7,33.6,0,18.54-7.21,33.33a56.38,56.38,0,0,1-20.08,23.16,52.07,52.07,0,0,1-29.06,8.38q-17.32,0-30.28-8.33a54.29,54.29,0,0,1-19.94-23.07Q413.64,162,413.63,143.26Zm104.66,0q0-18-6.37-31T494.65,92.38a46.65,46.65,0,0,0-48.44,0q-10.95,6.8-17.36,19.85t-6.42,31q0,18.17,6.46,31.13T446.35,194a46.41,46.41,0,0,0,24.48,6.64,44.68,44.68,0,0,0,24-6.64q10.77-6.65,17.13-19.61T518.29,143.26Z" transform="translate(0 -78.11)"/><path class="cls-1" d="M554.23,80.64l26.22,94.82q3.45,12.64,6.55,22.28h.18q1.61-7.4,5.06-18.25l1.22-4.21,24-94.64h9.08l24.15,94.64q5,19.85,5.9,22.65h.19q4.57-14,6.92-22.47L690,80.64h8.8L661.32,205.79h-9.54l-24.16-91.08q-4.86-18-5.52-24.71h-.47q-1.12,7-5.71,24.71l-24.15,91.08h-9.36L545.34,80.64Z" transform="translate(0 -78.11)"/><path class="cls-1" d="M727.88,80.64l56.35,78.72,23.59,33.8h.56q-1.3-11.81-1.31-38.76V80.64h8.24V205.79H808.2l-56.54-79.57L728.25,93.09h-.37Q729,104.88,729,137v68.8h-8.24V80.64Z" transform="translate(0 -78.11)"/><path class="cls-2" d="M810.89,264.24h44.42c26.46,0,48.24,9.2,48.24,38.93,0,28.71-21.78,41.06-48.24,41.06H839.22v44.94H810.89ZM853,321.79c14.85,0,22.82-6.39,22.82-18.62s-8-16.49-22.82-16.49H839.22v35.11Zm16.67-3.13,39.86,70.51H877.91l-27.8-52.39Z" transform="translate(0 -78.11)"/><path class="cls-2" d="M930.31,264.24h82.81V288H958.59V313h46.33v23.71H958.59v28.76H1015v23.7H930.31Z" transform="translate(0 -78.11)"/><path class="cls-2" d="M1038,327.4c0-41.42,26.21-65.46,59.68-65.46,15.84,0,28.83,7.56,37.27,15.89l-15.56,17.49c-6-5.51-12.69-9-21.71-9-17.74,0-30.69,15.08-30.69,40.1,0,25.69,13,40.59,31.8,40.59,9,0,16.44-4.43,22.51-11l15.56,17.1c-10.19,12.06-24.17,18.36-41,18.36C1064.83,391.48,1038,369.53,1038,327.4Z" transform="translate(0 -78.11)"/><path class="cls-1" d="M1149.92,326.13c0-41.75,20.49-64.19,50.25-64.19s50.25,22.44,50.25,64.19c0,42.74-20.5,65.35-50.25,65.35S1149.92,368.87,1149.92,326.13Zm71.51,0c0-26-8.23-39.77-21.26-39.77s-21.26,13.81-21.26,39.77c0,26.95,8.23,40.92,21.26,40.92S1221.43,353.08,1221.43,326.13Z" transform="translate(0 -78.11)"/><path class="cls-1" d="M1271,264.24h44.42c26.46,0,48.24,9.2,48.24,38.93,0,28.71-21.78,41.06-48.24,41.06h-16.09v44.94H1271Zm42.12,57.55c14.85,0,22.82-6.39,22.82-18.62s-8-16.49-22.82-16.49h-13.79v35.11Zm16.67-3.13,39.86,70.51H1338l-27.8-52.39Z" transform="translate(0 -78.11)"/><path class="cls-1" d="M1386.2,264.24h34.52c36.24,0,60.08,19,60.08,61.89s-23.84,63-58.48,63H1386.2Zm33,102.16c19.44,0,32.66-10.38,32.66-40.27S1438.59,287,1419.15,287h-4.67V366.4Z" transform="translate(0 -78.11)"/><path class="cls-1" d="M1497.39,373.43,1513.62,354c9.45,7.74,21.1,13,33.21,13s17.54-4.64,17.54-10.75c0-9-7.42-11.17-19.25-16.12l-16.27-6.95c-13.85-5.26-26.48-15.88-26.48-34.06,0-20.69,18.64-37.23,45.78-37.23a60.53,60.53,0,0,1,41.49,16.36l-14.24,17.82c-8.8-6.31-16.58-9.76-28.79-9.76-9.32,0-15.63,3.86-15.63,11.16,0,7.52,8.37,10.26,20.35,14.76l15.29,6.48c16.36,6.13,26.69,16.33,26.69,34,0,20.77-17.43,38.76-48.35,38.76A72,72,0,0,1,1497.39,373.43Z" transform="translate(0 -78.11)"/><line class="cls-3" y1="588.6" x2="1775" y2="588.6"/><text class="cls-4" transform="translate(945.5 72.14)">t</text><circle class="cls-2" cx="752" cy="244.14" r="38.5"/></g></g></svg>