<svg height="512" viewBox="0 0 60 60" width="512" xmlns="http://www.w3.org/2000/svg"><g id="004---Media-Distribution"><path id="Shape" d="m34.943 28.237-7.043-4.025c-.6203071-.3125752-1.3583737-.2809167-1.9496366.0836275-.5912628.3645441-.9510383 1.009762-.9503634 1.7043725v8c-.0000351 1.0983512.885684 1.9912132 1.984 2 .77 0 .461.049 7.911-4.208.6699909-.334041 1.0973236-1.0142934 1.107431-1.7628714s-.3987032-1.4401201-1.059431-1.7921286zm-7.943 5.763v-8l6.951 4.023z"/><path id="Shape" d="m55 25c-2.3751008.0029983-4.4215673 1.6735832-4.9 4h-7.151c-.2087583-2.7479588-1.2903875-5.3572534-3.087-7.447l5.059-5.06c2.1418769 1.4144765 5.0068812.9773613 6.6295139-1.0114683 1.6226328-1.9888296 1.4757495-4.8832631-.3398823-6.69761177-1.8156318-1.8143487-4.7101684-1.95918563-6.6978504-.33514728-1.9876819 1.62403835-2.4227715 4.48935105-1.0067812 6.63022735l-5.059 5.059c-2.0897466-1.7966125-4.6990412-2.8782417-7.447-3.087v-7.151c2.5149632-.51336472 4.2326695-2.84769871 3.9746808-5.4015243-.2579888-2.55382558-2.4078572-4.49745519-4.9746808-4.49745519s-4.716692 1.94362961-4.9746808 4.49745519c-.2579887 2.55382559 1.4597176 4.88815958 3.9746808 5.4015243v7.152c-2.7479588.2087583-5.3572534 1.2903875-7.447 3.087l-5.059-5.059c1.4159903-2.1408763.9809007-5.006189-1.0067812-6.63022735-1.987682-1.62403835-4.8822186-1.47920142-6.6978504.33514728-1.81563184 1.81434867-1.96251506 4.70878217-.33988234 6.69761177 1.62263274 1.9888296 4.48763704 2.4259448 6.62951394 1.0114683l5.059 5.06c-1.7964165 2.0894768-2.878033 4.6983904-3.087 7.446h-7.151c-.51336472-2.5149632-2.84769871-4.2326695-5.4015243-3.9746808-2.55382558.2579888-4.49745519 2.4078572-4.49745519 4.9746808s1.94362961 4.716692 4.49745519 4.9746808c2.55382559.2579887 4.88815958-1.4597176 5.4015243-3.9746808h7.152c.2087583 2.7479588 1.2903875 5.3572534 3.087 7.447l-5.059 5.059c-2.1408763-1.4159903-5.006189-.9809007-6.63022735 1.0067812-1.62403835 1.987682-1.47920142 4.8822186.33514728 6.6978504 1.81434867 1.8156318 4.70878217 1.9625151 6.69761177.3398823 1.9888296-1.6226327 2.4259448-4.487637 1.0114683-6.6295139l5.059-5.059c2.0897466 1.7966125 4.6990412 2.8782417 7.447 3.087v7.151c-2.5149632.5133647-4.2326695 2.8476987-3.9746808 5.4015243.2579888 2.5538256 2.4078572 4.4974552 4.9746808 4.4974552s4.716692-1.9436296 4.9746808-4.4974552c.2579887-2.5538256-1.4597176-4.8881596-3.9746808-5.4015243v-7.151c2.7479588-.2087583 5.3572534-1.2903875 7.447-3.087l5.059 5.059c-1.4159903 2.1408763-.9809007 5.006189 1.0067812 6.6302274 1.987682 1.6240383 4.8822186 1.4792014 6.6978504-.3351473s1.9625151-4.7087822.3398823-6.6976118c-1.6226327-1.9888296-4.487637-2.4259448-6.6295139-1.0114683l-5.059-5.06c1.7966125-2.0897466 2.8782417-4.6990412 3.087-7.447h7.151c.5262254 2.577967 2.9603418 4.3070246 5.5678215 3.955063 2.6074796-.3519616 4.4960549-2.6645028 4.3199453-5.2897289-.1761097-2.6252262-2.3566403-4.6647971-4.9877668-4.6653341zm-9.444-14.8c1.1716253-1.17142687 3.0710279-1.17131963 4.2425209.0002395 1.171493 1.1715592 1.171493 3.0709618 0 4.242521-1.171493 1.1715591-3.0708956 1.1716664-4.2425209.0002395-.562719-.5626237-.8788593-1.3257625-.8788593-2.1215s.3161403-1.5588763.8788593-2.1215zm-18.556-5.2c0-1.65685425 1.3431458-3 3-3s3 1.34314575 3 3-1.3431458 3-3 3-3-1.34314575-3-3zm-16.8 9.444c-1.17142687-1.1716253-1.17131963-3.0710279.0002395-4.2425209 1.1715592-1.17149303 3.0709618-1.17149303 4.242521 0 1.1715591 1.171493 1.1716664 3.0708956.0002395 4.2425209-.5626237.562719-1.3257625.8788593-2.1215.8788593s-1.5588763-.3161403-2.1215-.8788593zm-5.2 18.556c-1.65685425 0-3-1.3431458-3-3s1.34314575-3 3-3 3 1.3431458 3 3-1.34314575 3-3 3zm9.444 16.8c-.9598312.961026-2.4455972 1.1572767-3.6220353.4784245s-1.75000696-2.063422-1.39825967-3.375337c.35174728-1.3119149 1.54104377-2.2238297 2.89929497-2.2230875 1.2043853.0176832 2.2829282.7498214 2.7439182 1.8626308s.2161416 2.3931729-.6229182 3.2573692zm18.556 5.2c0 1.6568542-1.3431458 3-3 3s-3-1.3431458-3-3 1.3431458-3 3-3 3 1.3431458 3 3zm16.8-9.444c.562719.5626237.8788593 1.3257625.8788593 2.1215s-.3161403 1.5588763-.8788593 2.1215c-1.187189 1.133592-3.055811 1.133592-4.243 0-.757939-.7579389-1.0539479-1.862659-.776523-2.8980229s1.0861362-1.8440752 2.1215001-2.1215001 2.140084.018584 2.8980229.776523zm-19.8-4.556c-6.0751322 0-11-4.9248678-11-11s4.9248678-11 11-11 11 4.9248678 11 11c-.0071635 6.0721626-4.9278374 10.9928365-11 11zm25-8c-1.6568542 0-3-1.3431458-3-3s1.3431458-3 3-3 3 1.3431458 3 3-1.3431458 3-3 3z"/></g></svg>