<svg id="Layer_1" data-name="Layer 1" xmlns="http://www.w3.org/2000/svg" viewBox="0 0 263.43 90.35"><defs><style>.cls-1{isolation:isolate;}.cls-2{stroke:#000;stroke-miterlimit:10;}</style></defs><g id="Layer_2" data-name="Layer 2"><g id="Layer_1-2" data-name="Layer 1-2"><g class="cls-1"><path class="cls-2" d="M.5,25.58A7,7,0,0,1,1.86,21.3a13.41,13.41,0,0,1,3.48-3.25,20.81,20.81,0,0,1,4.83-2.32,44.11,44.11,0,0,1,5.45-1.48,44.62,44.62,0,0,1,5.28-.78c1.7-.14,3.16-.22,4.39-.22a2.12,2.12,0,0,1,1.36.5A1.53,1.53,0,0,1,27.27,15a4.06,4.06,0,0,1-.17,1.21,5.85,5.85,0,0,1-.65,1.26,29.91,29.91,0,0,0-3.61-.18,41.93,41.93,0,0,0-4.53.25,32.66,32.66,0,0,0-4.67.83A18.58,18.58,0,0,0,9.42,20a9.87,9.87,0,0,0-3.06,2.45A5.26,5.26,0,0,0,5.2,25.88a7,7,0,0,0,.68,3.19,7.16,7.16,0,0,0,1.84,2.29,9.58,9.58,0,0,0,2.66,1.55,19.33,19.33,0,0,0,3.16.93,27.32,27.32,0,0,0,3.37.47q1.71.12,3.27.12,1.77,0,3.51-.06c1.16,0,2.28-.13,3.37-.25s2.2-.3,3.34-.53a14.79,14.79,0,0,0,3.34-1.08c.49.12.76.34.78.65s0,.63,0,1A2.43,2.43,0,0,1,33.7,36a6.12,6.12,0,0,1-2.25,1.17,16,16,0,0,1-3.1.62c-1.13.13-2.24.2-3.33.22s-2.1,0-3,0l-2.15,0a34.85,34.85,0,0,1-4.32-.28,32.3,32.3,0,0,1-4.4-.83,22.44,22.44,0,0,1-4-1.52A13.51,13.51,0,0,1,3.7,33.07a10.71,10.71,0,0,1-2.31-3.22A9.68,9.68,0,0,1,.5,25.58Z" transform="translate(0 32.93)"/><path class="cls-2" d="M38.57,28.3v6.62s-.08.15-.24.31a6.1,6.1,0,0,1-.57.53l-.75.59a1.93,1.93,0,0,1-.68.37.74.74,0,0,1-.28.06h-.4a4.22,4.22,0,0,1-.75-.06c-.23,0-.41-.23-.55-.56v-.93c0-.49,0-1,0-1.51s0-1,0-1.46v-.93a45.28,45.28,0,0,1,.82-9.07,15.89,15.89,0,0,1,3.1-6.78A15.28,15.28,0,0,1,44.5,11,32.27,32.27,0,0,1,54.92,9a5.82,5.82,0,0,1,1.7.75A4.81,4.81,0,0,1,57.88,11a5.91,5.91,0,0,1,.78,1.49,4.71,4.71,0,0,1,.28,1.64,5.17,5.17,0,0,1-1,3,14.38,14.38,0,0,1-2.35,2.64A22.84,22.84,0,0,1,52.57,22c-1.11.68-2.14,1.29-3.07,1.82s-1.71,1-2.35,1.49-.95.84-.95,1.17a2.61,2.61,0,0,0,.61,1.55,7.93,7.93,0,0,0,1.64,1.55A18.72,18.72,0,0,0,50.7,31c.81.44,1.62.84,2.41,1.21s1.54.69,2.22,1,1.18.49,1.5.65h6.06q1.42,0,2.76-.12l2.62-.28c.86-.11,1.73-.2,2.62-.28s1.8-.12,2.76-.12a3.08,3.08,0,0,1-.79,2.16,6.14,6.14,0,0,1-2,1.43,12.58,12.58,0,0,1-2.76.86,21.32,21.32,0,0,1-3,.4c-1,.07-1.94.1-2.89.1H60.16a18.89,18.89,0,0,1-5.48-.81A26.89,26.89,0,0,1,49.5,35a32.8,32.8,0,0,1-4.66-3.1,38.3,38.3,0,0,1-4-3.59Zm1-5.94a.91.91,0,0,0,.64,1,4.51,4.51,0,0,0,1.4.21,8.35,8.35,0,0,0,2.31-.4,25.88,25.88,0,0,0,2.8-1,19.79,19.79,0,0,0,2.79-1.49A15.59,15.59,0,0,0,52,18.73a10.86,10.86,0,0,0,1.73-2.13,4.13,4.13,0,0,0,.68-2.17A2.2,2.2,0,0,0,54,13.1c-.22-.31-.72-.46-1.49-.46a16.21,16.21,0,0,0-4.53.65,14.84,14.84,0,0,0-4.16,1.88,10.53,10.53,0,0,0-3.06,3.07A7.33,7.33,0,0,0,39.6,22.36Z" transform="translate(0 32.93)"/><path class="cls-2" d="M71.88,25.88a7.58,7.58,0,0,0,.68-1.61,18,18,0,0,0,.58-2.35c.16-.86.35-1.74.58-2.63s.46-1.7.71-2.44a6.29,6.29,0,0,1,.89-1.8,1.48,1.48,0,0,1,1.19-.68l.41,0,.34,0a104.11,104.11,0,0,0,13.93,9.13,141.17,141.17,0,0,0,15.22,7.22h.68a3.54,3.54,0,0,0,.75-.07c.23,0,.43-.24.61-.62a28.24,28.24,0,0,1-1.6-4.08c-.47-1.53-.89-3.08-1.26-4.64s-.66-3.09-.88-4.56a25.15,25.15,0,0,1-.34-3.87,3.07,3.07,0,0,1,.1-.68c.07-.28.15-.58.24-.89a2.21,2.21,0,0,1,.41-.81.82.82,0,0,1,.68-.34,5.41,5.41,0,0,1,.81.09,5.78,5.78,0,0,1,1.13.34,4.71,4.71,0,0,1,1,.59,1,1,0,0,1,.4.78,2.83,2.83,0,0,1-.34,1.33,2.89,2.89,0,0,0-.34,1.33V15a6.69,6.69,0,0,0,.1.74c.07.37.14.75.21,1.15s.12.76.17,1.11a2,2,0,0,0,.14.65v.62c.31,1,.68,2.08,1.09,3.28s.78,2.43,1.12,3.69.62,2.53.85,3.83a21.51,21.51,0,0,1,.34,3.75A8.11,8.11,0,0,1,112.4,35a2.75,2.75,0,0,1-.3,1,1.51,1.51,0,0,1-.72.64,2.89,2.89,0,0,1-1.22.22,5.49,5.49,0,0,1-1.64-.25,6.49,6.49,0,0,1-1.57-.71,11.07,11.07,0,0,1-1.36-1c-.41-.35-.79-.69-1.16-1L78.55,21.06h-.27V21c-.27,0-.51.2-.71.59A9.17,9.17,0,0,0,77,22.85c-.16.46-.28.87-.37,1.24s-.14.58-.14.62a8.32,8.32,0,0,0,.07.87c0,.41.09.91.14,1.51s.09,1.22.13,1.86.09,1.25.14,1.83.1,1.08.17,1.51a6.68,6.68,0,0,1,.1.9V37.4a.77.77,0,0,1-.44.43,2.83,2.83,0,0,1-.68.19,3.14,3.14,0,0,1-.75,0l-.45,0-.88,0-.82,0Z" transform="translate(0 32.93)"/><path class="cls-2" d="M135.43,37.4a11.81,11.81,0,0,1-.48-2.13c-.14-.89-.27-1.86-.41-2.92s-.28-2.12-.44-3.21-.32-2.14-.48-3.13a17.37,17.37,0,0,0-.61-2.63,5.31,5.31,0,0,0-.85-1.71h-5.93a16.55,16.55,0,0,0-2.25.16c-.72.1-1.49.23-2.31.37a26.26,26.26,0,0,0-2.86.71,1.48,1.48,0,0,0-.75.68,7.1,7.1,0,0,0-.58,1.21c-.16.43-.3.86-.41,1.27a4.2,4.2,0,0,0-.17,1.05c0,.29,0,.81-.1,1.55s-.14,1.53-.21,2.35-.14,1.62-.23,2.39-.16,1.27-.21,1.51a4.25,4.25,0,0,1-1.36,1.3,3.46,3.46,0,0,1-1.91.56,1.4,1.4,0,0,1-1.16-.37,2,2,0,0,1-.27-1.18s0-.18,0-.43,0-.41,0-.49a90.77,90.77,0,0,1,3.61-16.6,115.67,115.67,0,0,1,6.4-16,.61.61,0,0,1,.17-.25,3,3,0,0,1,.41-.37l.44-.34a.76.76,0,0,1,.28-.16.3.3,0,0,0,.2-.06h.07l.07-.06a5.25,5.25,0,0,1,3,1A16.26,16.26,0,0,1,129,4.09a20.21,20.21,0,0,1,2.46,3.5c.72,1.3,1.37,2.57,1.94,3.81a30.42,30.42,0,0,1,1.36,3.5,19.88,19.88,0,0,1,.65,2.56,7.92,7.92,0,0,0,1.53.59c.52.15,1,.31,1.53.5a5.73,5.73,0,0,1,1.33.68,3.24,3.24,0,0,1,1,1.27s0,.12,0,.25a.94.94,0,0,1-.17.37,3.87,3.87,0,0,0-.24.37q-.11.18-.24.18a3.24,3.24,0,0,1-.64.19c-.34.08-.68.16-1,.22s-.68.11-1,.15l-.64.06v.31a34.2,34.2,0,0,0,.54,5.92,44.55,44.55,0,0,0,1.43,5.79.71.71,0,0,0,.11.24,2.06,2.06,0,0,0,.23.37,1.59,1.59,0,0,1,.21.41c0,.14.09.21.13.21v.31a1.79,1.79,0,0,1-.85,1.61,3.33,3.33,0,0,1-2.62.47A.88.88,0,0,1,135.43,37.4ZM119.56,18.83c.86,0,1.87,0,3-.16s2.31-.24,3.47-.4l3.24-.46c1-.15,1.72-.26,2.18-.35A13.42,13.42,0,0,0,131,16c-.25-.7-.51-1.44-.78-2.23s-.55-1.52-.82-2.2a13.61,13.61,0,0,0-.61-1.39c-.09-.16-.29-.46-.58-.9a12.89,12.89,0,0,0-1-1.27A8.81,8.81,0,0,0,126,7a2,2,0,0,0-1.12-.46,4.38,4.38,0,0,0-.75.06c-.23,0-.43.27-.61.68l-4,10.21Z" transform="translate(0 32.93)"/><path class="cls-2" d="M139.24,25.27a7.68,7.68,0,0,1,.79-3.38,12.06,12.06,0,0,1,2.11-3.06,16.41,16.41,0,0,1,3.06-2.57,21.62,21.62,0,0,1,3.64-2A25.15,25.15,0,0,1,152.66,13a15.24,15.24,0,0,1,3.61-.47,16.7,16.7,0,0,1,6.43,1.15,13.46,13.46,0,0,1,4.67,3.13,13,13,0,0,1,2.89,4.7,17.3,17.3,0,0,1,1,5.94c0,3.55-1.12,6.2-3.37,7.93s-5.44,2.6-9.57,2.6a20.7,20.7,0,0,1-3.88-.4,28.44,28.44,0,0,1-4.22-1.15,27.12,27.12,0,0,1-4.09-1.82,17.44,17.44,0,0,1-3.47-2.48A12.24,12.24,0,0,1,140.2,29,7.63,7.63,0,0,1,139.24,25.27Zm4.63.12a5.44,5.44,0,0,0,1.54,3.78A13.83,13.83,0,0,0,149.15,32a20.57,20.57,0,0,0,4.63,1.8,17.56,17.56,0,0,0,4.26.62,21.92,21.92,0,0,0,4-.34,9.37,9.37,0,0,0,3.2-1.18,6.3,6.3,0,0,0,2.18-2.26,9.53,9.53,0,0,0,1.09-3.53,8.89,8.89,0,0,0-.72-4.49,9.68,9.68,0,0,0-2.62-3.43A12,12,0,0,0,161.24,17a15,15,0,0,0-4.7-.74,14.47,14.47,0,0,0-4.15.68,15.8,15.8,0,0,0-4.12,1.89,11.89,11.89,0,0,0-3.14,2.88A5.92,5.92,0,0,0,143.87,25.39Z" transform="translate(0 32.93)"/><path class="cls-2" d="M172.28,17.46a6.26,6.26,0,0,1-.69-.89c-.22-.35-.45-.72-.68-1.12a6.79,6.79,0,0,1-.54-1.17,3.19,3.19,0,0,1-.21-1c0-.82.48-1.23,1.43-1.23a4,4,0,0,1,3,1.27,13,13,0,0,1,2.28,3.25,40.74,40.74,0,0,1,1.91,4.33q.88,2.36,1.77,4.55a28.49,28.49,0,0,0,1.94,4,6,6,0,0,0,2.42,2.48l5.31-9,.68-.62c.23-.24.57-.65,1-1.2s1-1.21,1.5-1.95,1.12-1.51,1.73-2.29,1.22-1.53,1.81-2.23,1.1-1.34,1.53-1.92a15.5,15.5,0,0,1,1.06-1.3h.61a2,2,0,0,1,1.57.62,2.24,2.24,0,0,1,.54,1.54s0,.19,0,.44,0,.39,0,.43l-.95,1.21c-.41.51-.87,1.12-1.4,1.82s-1.07,1.42-1.66,2.14S197,21,196.49,21.71l-1.4,1.82c-.41.54-.73.93-1,1.18,0,.08-.09.18-.27.31a4.55,4.55,0,0,1-.41.25l-6.61,11.45s-.11.11-.34.22l-.75.34c-.27.12-.56.25-.85.4a3.67,3.67,0,0,1-.72.28l-.34,0-.47,0h-.28a.3.3,0,0,1-.2-.06Z" transform="translate(0 32.93)"/><path class="cls-2" d="M200.54,25.58a7.11,7.11,0,0,1,1.36-4.28,13.41,13.41,0,0,1,3.48-3.25,21,21,0,0,1,4.83-2.32,44.11,44.11,0,0,1,5.45-1.48,45.24,45.24,0,0,1,5.28-.78c1.7-.14,3.17-.22,4.39-.22a2.1,2.1,0,0,1,1.36.5,1.53,1.53,0,0,1,.62,1.24,4.06,4.06,0,0,1-.17,1.21,5.85,5.85,0,0,1-.65,1.26,29.8,29.8,0,0,0-3.61-.18,42.07,42.07,0,0,0-4.53.25,32.52,32.52,0,0,0-4.66.83A18.48,18.48,0,0,0,209.46,20a9.87,9.87,0,0,0-3.06,2.45,5.32,5.32,0,0,0-1.16,3.46,7,7,0,0,0,.68,3.19,7.3,7.3,0,0,0,1.84,2.29,9.58,9.58,0,0,0,2.66,1.55,19.63,19.63,0,0,0,3.16.93,27.47,27.47,0,0,0,3.38.47c1.13.08,2.22.12,3.26.12s2.35,0,3.51-.06,2.28-.13,3.37-.25,2.2-.3,3.34-.53a14.79,14.79,0,0,0,3.34-1.08c.5.12.76.34.78.65s0,.63,0,1a2.43,2.43,0,0,1-.85,1.92,6,6,0,0,1-2.24,1.17,16.35,16.35,0,0,1-3.1.62c-1.14.13-2.25.2-3.34.22s-2.1,0-3,0l-2.15,0a34.85,34.85,0,0,1-4.32-.28,31.87,31.87,0,0,1-4.39-.83,22.26,22.26,0,0,1-4.06-1.52,13.7,13.7,0,0,1-3.37-2.32,10.89,10.89,0,0,1-2.31-3.22A9.82,9.82,0,0,1,200.54,25.58Z" transform="translate(0 32.93)"/><path class="cls-2" d="M257.55,37.4a13.82,13.82,0,0,1-.48-2.13c-.13-.89-.27-1.86-.41-2.92s-.28-2.12-.44-3.21S255.9,27,255.74,26a17.37,17.37,0,0,0-.61-2.63,5.11,5.11,0,0,0-.85-1.71h-5.92a16.32,16.32,0,0,0-2.25.16c-.73.1-1.5.23-2.32.37a26.26,26.26,0,0,0-2.86.71,1.48,1.48,0,0,0-.75.68,7.94,7.94,0,0,0-.58,1.21c-.16.43-.29.86-.4,1.27a3.84,3.84,0,0,0-.18,1.05c0,.29,0,.81-.1,1.55s-.13,1.53-.2,2.35-.15,1.62-.24,2.39-.16,1.27-.2,1.51a4.29,4.29,0,0,1-1.37,1.3,3.43,3.43,0,0,1-1.9.56c-.59,0-1-.12-1.16-.37a2,2,0,0,1-.27-1.18s0-.18,0-.43,0-.41,0-.49a92.46,92.46,0,0,1,3.61-16.6,115.73,115.73,0,0,1,6.41-16s.05-.13.17-.25a3.64,3.64,0,0,1,.4-.37l.45-.34A.68.68,0,0,1,245,.62a.28.28,0,0,0,.2-.06h.07l.07-.06a5.25,5.25,0,0,1,3,1,16,16,0,0,1,2.83,2.57,20.73,20.73,0,0,1,2.45,3.5c.72,1.3,1.37,2.57,1.94,3.81a28.69,28.69,0,0,1,1.36,3.5,18.33,18.33,0,0,1,.65,2.56,8.18,8.18,0,0,0,1.53.59c.52.15,1,.31,1.53.5a5.54,5.54,0,0,1,1.33.68,3.07,3.07,0,0,1,1,1.27,2.14,2.14,0,0,1,0,.25,1,1,0,0,1-.18.37,2.49,2.49,0,0,0-.23.37q-.11.18-.24.18a3.43,3.43,0,0,1-.65.19c-.34.08-.68.16-1,.22s-.68.11-1,.15l-.65.06v.31a33.28,33.28,0,0,0,.55,5.92,43,43,0,0,0,1.43,5.79.62.62,0,0,0,.1.24,2.12,2.12,0,0,0,.24.37,1.56,1.56,0,0,1,.2.41c.05.14.09.21.14.21v.31a1.81,1.81,0,0,1-.85,1.61,3.36,3.36,0,0,1-2.63.47A.93.93,0,0,1,257.55,37.4ZM241.68,18.83c.86,0,1.87,0,3-.16s2.32-.24,3.47-.4l3.24-.46c1-.15,1.72-.26,2.18-.35a12.58,12.58,0,0,0-.44-1.42l-.79-2.23c-.27-.78-.54-1.52-.81-2.2s-.48-1.14-.62-1.39-.28-.46-.58-.9a10.51,10.51,0,0,0-1-1.27A8.21,8.21,0,0,0,248.12,7,2.06,2.06,0,0,0,247,6.51a4.38,4.38,0,0,0-.75.06c-.22,0-.43.27-.61.68l-3.95,10.21Z" transform="translate(0 32.93)"/></g><g class="cls-1"><g class="cls-1"><path class="cls-2" d="M3,43.87a.27.27,0,0,1,.28-.25H8.16c4.51,0,8.17,2.94,8.17,6.54s-3.66,6.57-8.17,6.57H3.24A.27.27,0,0,1,3,56.48ZM8,55.92c4.06,0,7.19-2.49,7.19-5.76S12,44.43,8,44.43H4.06V55.92Z" transform="translate(0 32.93)"/><path class="cls-2" d="M21.26,43.87a.28.28,0,0,1,.3-.25h.51a.28.28,0,0,1,.3.25V56.48c0,.15-.16.25-.32.25h-.49a.28.28,0,0,1-.3-.25Z" transform="translate(0 32.93)"/><path class="cls-2" d="M35.69,43.44a9,9,0,0,1,5.62,1.74.2.2,0,0,1,0,.33,2.73,2.73,0,0,1-.37.32.26.26,0,0,1-.39,0,8.17,8.17,0,0,0-4.9-1.57c-4,0-7.22,2.66-7.22,5.9s3.18,5.89,7.22,5.89a10.26,10.26,0,0,0,4.83-1V51.5h-4c-.26,0-.3-.07-.3-.24v-.37c0-.15,0-.23.3-.23h4.76c.16,0,.3.11.3.23v4.34c0,.28-.14.37-.33.49a12.7,12.7,0,0,1-5.57,1.2c-4.66,0-8.4-3-8.4-6.73S31,43.44,35.69,43.44Z" transform="translate(0 32.93)"/><path class="cls-2" d="M46.86,43.87a.28.28,0,0,1,.3-.25h.51a.28.28,0,0,1,.3.25V56.48c0,.15-.16.25-.32.25h-.49a.28.28,0,0,1-.3-.25Z" transform="translate(0 32.93)"/></g><g class="cls-1"><path class="cls-2" d="M56.51,44.43H52.08c-.23,0-.3-.12-.3-.28v-.28a.27.27,0,0,1,.3-.25h10c.19,0,.3.11.3.25v.31a.27.27,0,0,1-.3.25H57.6v12c0,.14-.14.25-.37.25h-.42a.28.28,0,0,1-.3-.25Z" transform="translate(0 32.93)"/></g><g class="cls-1"><path class="cls-2" d="M62.92,56.5l7.14-13a.37.37,0,0,1,.28-.13h.07a.31.31,0,0,1,.3.13l7.08,13c0,.12,0,.23-.21.23H77a.39.39,0,0,1-.32-.17l-1.88-3.45H65.91l-1.86,3.45a.39.39,0,0,1-.32.17h-.65C62.92,56.73,62.85,56.65,62.92,56.5Zm11.46-4.12-4-7.54h0l-4,7.54Z" transform="translate(0 32.93)"/><path class="cls-2" d="M81.56,43.87a.28.28,0,0,1,.3-.25h.51a.27.27,0,0,1,.28.25V55.94h7.4c.28,0,.3.11.3.25v.33c0,.13-.14.21-.3.21H81.86a.28.28,0,0,1-.3-.25Z" transform="translate(0 32.93)"/><path class="cls-2" d="M94.07,43.68c0-.15.16-.24.35-.24h.39L106,55.14h0V43.87a.28.28,0,0,1,.31-.25h.46a.28.28,0,0,1,.3.25v12.8c0,.17-.18.25-.37.25h-.3s-.21-.06-11.23-11.82h0V56.48a.28.28,0,0,1-.3.25h-.44a.28.28,0,0,1-.3-.25Z" transform="translate(0 32.93)"/><path class="cls-2" d="M113.12,43.87a.28.28,0,0,1,.31-.25h.51a.28.28,0,0,1,.3.25V56.48c0,.15-.16.25-.33.25h-.48a.28.28,0,0,1-.31-.25Z" transform="translate(0 32.93)"/><path class="cls-2" d="M128.51,43.57a.22.22,0,0,1,.21-.13H129a.22.22,0,0,1,.23.13L134,55.06h0l4.8-11.49a.22.22,0,0,1,.23-.13h.26a.21.21,0,0,1,.21.13l3.29,12.91c0,.19,0,.25-.25.25H142a.29.29,0,0,1-.28-.21l-2.62-11h-.05l-4.68,11.22a.34.34,0,0,1-.33.15H134c-.12,0-.26,0-.3-.15L129,45.55h0l-2.62,11a.28.28,0,0,1-.28.21h-.56c-.2,0-.3-.06-.25-.25Z" transform="translate(0 32.93)"/><path class="cls-2" d="M145.3,56.5l7.15-13a.34.34,0,0,1,.27-.13h.07a.33.33,0,0,1,.31.13l7.08,13c0,.12,0,.23-.21.23h-.61a.39.39,0,0,1-.32-.17l-1.88-3.45h-8.87l-1.85,3.45a.42.42,0,0,1-.33.17h-.65C145.3,56.73,145.23,56.65,145.3,56.5Zm11.46-4.12-4-7.54h0l-4,7.54Z" transform="translate(0 32.93)"/><path class="cls-2" d="M163.94,43.87c0-.14.11-.25.3-.25H170c2.83,0,5.17,1.73,5.17,4,0,1.89-1.62,3.41-3.83,3.91l3.39,4.85c.12.15.07.34-.16.34h-.72a.36.36,0,0,1-.33-.17l-3.36-4.91c-.3,0-.56,0-.86,0H165v4.81c0,.14-.14.25-.37.25h-.42a.28.28,0,0,1-.3-.25Zm6,7c2.23,0,4.11-1.41,4.11-3.26s-1.88-3.15-4.13-3.15h-4.88v6.41Z" transform="translate(0 32.93)"/></g><g class="cls-1"><path class="cls-2" d="M180.2,43.9c0-.17.14-.28.35-.28H181c.21,0,.35.11.35.28v5.79l7.89-5.94a.63.63,0,0,1,.47-.13h.65c.25,0,.28.21.14.32L182.38,50l8.33,6.42c.14.09.09.32-.21.32h-.74a.7.7,0,0,1-.51-.19l-7.94-6.22v6.16c0,.19-.16.25-.35.25h-.46c-.19,0-.3-.1-.3-.25Z" transform="translate(0 32.93)"/></g><g class="cls-1"><path class="cls-2" d="M195,43.87a.28.28,0,0,1,.31-.25h9.3a.28.28,0,0,1,.3.25v.31a.29.29,0,0,1-.3.25h-8.49V49.6h7.36a.28.28,0,0,1,.3.24v.32a.28.28,0,0,1-.3.24h-7.36v5.54h8.49a.28.28,0,0,1,.3.25v.29a.28.28,0,0,1-.3.25h-9.3a.28.28,0,0,1-.31-.25Z" transform="translate(0 32.93)"/><path class="cls-2" d="M212.46,44.43H208c-.23,0-.3-.12-.3-.28v-.28a.27.27,0,0,1,.3-.25h10c.19,0,.3.11.3.25v.31a.27.27,0,0,1-.3.25h-4.45v12c0,.14-.14.25-.37.25h-.42a.28.28,0,0,1-.3-.25Z" transform="translate(0 32.93)"/><path class="cls-2" d="M222.11,43.87a.28.28,0,0,1,.3-.25h.51a.28.28,0,0,1,.31.25V56.48c0,.15-.17.25-.33.25h-.49a.28.28,0,0,1-.3-.25Z" transform="translate(0 32.93)"/><path class="cls-2" d="M229.31,43.68c0-.15.16-.24.35-.24h.39l11.14,11.7h0V43.87a.28.28,0,0,1,.31-.25H242a.28.28,0,0,1,.3.25v12.8c0,.17-.18.25-.37.25h-.3s-.21-.06-11.23-11.82h0V56.48a.28.28,0,0,1-.3.25h-.44a.28.28,0,0,1-.3-.25Z" transform="translate(0 32.93)"/><path class="cls-2" d="M255.61,43.44a9,9,0,0,1,5.61,1.74.2.2,0,0,1,0,.33c-.12.12-.26.23-.37.32a.27.27,0,0,1-.4,0,8.15,8.15,0,0,0-4.9-1.57c-4,0-7.21,2.66-7.21,5.9s3.17,5.89,7.21,5.89a10.21,10.21,0,0,0,4.83-1V51.5h-4c-.25,0-.3-.07-.3-.24v-.37c0-.15.05-.23.3-.23h4.76c.16,0,.3.11.3.23v4.34c0,.28-.14.37-.32.49a12.74,12.74,0,0,1-5.57,1.2c-4.67,0-8.4-3-8.4-6.73S250.94,43.44,255.61,43.44Z" transform="translate(0 32.93)"/></g></g></g><text y="32.93"/></g></svg>